<svg width="263" height="262" viewBox="0 0 263 262" fill="none" xmlns="http://www.w3.org/2000/svg">
<path d="M46 223L215.245 38.9999" stroke="white" stroke-width="14"/>
<path d="M8.64128 69.858L13.5853 26.3034H61.6131V40.4881H27.5346L25.4157 58.9105C29.4572 56.7524 33.7538 55.6733 38.3055 55.6733C46.4671 55.6733 52.8629 58.2042 57.4931 63.2659C62.1232 68.3277 64.4382 75.4102 64.4382 84.5135C64.4382 90.0461 63.2611 95.0098 60.9068 99.4045C58.5917 103.76 55.2565 107.154 50.901 109.587C46.5455 111.98 41.4053 113.177 35.4803 113.177C30.3009 113.177 25.4942 112.137 21.0602 110.058C16.6263 107.939 13.1145 104.976 10.5247 101.17C7.97422 97.3641 6.6205 93.0282 6.46355 88.1627H23.2968C23.65 91.7334 24.886 94.5193 27.0048 96.5205C29.1629 98.4824 31.9685 99.4633 35.4215 99.4633C39.2668 99.4633 42.2293 98.09 44.309 95.3433C46.3886 92.5574 47.4284 88.6335 47.4284 83.5718C47.4284 78.7062 46.2316 74.9786 43.8381 72.3889C41.4446 69.7991 38.0504 68.5043 33.6557 68.5043C29.6142 68.5043 26.3378 69.5637 23.8265 71.6826L22.1785 73.2129L8.64128 69.858ZM133.007 76.5677C133.007 88.4177 130.555 97.4818 125.65 103.76C120.745 110.038 113.565 113.177 104.108 113.177C94.7695 113.177 87.6281 110.097 82.6841 103.937C77.7401 97.7761 75.2092 88.9475 75.0915 77.4506V61.6768C75.0915 49.7091 77.5635 40.6254 82.5075 34.4257C87.4908 28.2261 94.6518 25.1262 103.991 25.1262C113.329 25.1262 120.471 28.2064 125.415 34.3669C130.359 40.4881 132.89 49.2971 133.007 60.7939V76.5677ZM115.997 59.2636C115.997 52.1615 115.017 47.0016 113.055 43.7841C111.132 40.5273 108.111 38.8989 103.991 38.8989C99.9882 38.8989 97.0257 40.4488 95.103 43.5486C93.2196 46.6092 92.219 51.4159 92.1013 57.9688V78.8043C92.1013 85.7888 93.043 90.9878 94.9265 94.4016C96.8491 97.7761 99.9097 99.4633 104.108 99.4633C108.268 99.4633 111.269 97.8349 113.113 94.5782C114.958 91.3214 115.919 86.3381 115.997 79.6283V59.2636Z" fill="white"/>
<path d="M131.73 194.858L136.674 151.303H184.701V165.488H150.623L148.504 183.91C152.545 181.752 156.842 180.673 161.394 180.673C169.555 180.673 175.951 183.204 180.581 188.266C185.211 193.328 187.526 200.41 187.526 209.514C187.526 215.046 186.349 220.01 183.995 224.404C181.68 228.76 178.345 232.154 173.989 234.587C169.634 236.98 164.494 238.177 158.569 238.177C153.389 238.177 148.582 237.137 144.148 235.058C139.715 232.939 136.203 229.976 133.613 226.17C131.062 222.364 129.709 218.028 129.552 213.163H146.385C146.738 216.733 147.974 219.519 150.093 221.52C152.251 223.482 155.057 224.463 158.51 224.463C162.355 224.463 165.318 223.09 167.397 220.343C169.477 217.557 170.517 213.634 170.517 208.572C170.517 203.706 169.32 199.979 166.926 197.389C164.533 194.799 161.139 193.504 156.744 193.504C152.702 193.504 149.426 194.564 146.915 196.683L145.267 198.213L131.73 194.858ZM256.096 201.568C256.096 213.418 253.643 222.482 248.738 228.76C243.834 235.038 236.653 238.177 227.196 238.177C217.858 238.177 210.716 235.097 205.772 228.937C200.828 222.776 198.297 213.947 198.18 202.451V186.677C198.18 174.709 200.652 165.625 205.596 159.426C210.579 153.226 217.74 150.126 227.079 150.126C236.418 150.126 243.559 153.206 248.503 159.367C253.447 165.488 255.978 174.297 256.096 185.794V201.568ZM239.086 184.264C239.086 177.161 238.105 172.002 236.143 168.784C234.22 165.527 231.199 163.899 227.079 163.899C223.076 163.899 220.114 165.449 218.191 168.549C216.308 171.609 215.307 176.416 215.19 182.969V203.804C215.19 210.789 216.131 215.988 218.015 219.402C219.937 222.776 222.998 224.463 227.196 224.463C231.356 224.463 234.357 222.835 236.202 219.578C238.046 216.321 239.007 211.338 239.086 204.628V184.264Z" fill="white"/>
</svg>
