<?xml version="1.0" encoding="iso-8859-1"?>
<!-- Generator: Adobe Illustrator 16.0.0, SVG Export Plug-In . SVG Version: 6.00 Build 0)  -->
<!DOCTYPE svg PUBLIC "-//W3C//DTD SVG 1.1//EN" "http://www.w3.org/Graphics/SVG/1.1/DTD/svg11.dtd">
<svg version="1.1" id="Capa_1" xmlns="http://www.w3.org/2000/svg" xmlns:xlink="http://www.w3.org/1999/xlink" x="0px" y="0px"
	 width="792px" height="792px" viewBox="0 0 792 792" style="enable-background:new 0 0 792 792;" xml:space="preserve">
<g>
	<g>
		<g>
			<g>
				<g>
					<path d="M587.066,89.891h31.89V58.648C618.956,26.257,592.699,0,560.308,0H231.68c-32.379,0-58.636,26.257-58.636,58.648v31.23
						h31.89v96.55c0,27.064,6.842,53.688,19.904,77.379l62.815,114.059c6.17,11.205,5.975,24.816-0.501,35.849l-60.139,102.428
						c-14.467,24.62-22.091,52.661-22.091,81.216v104.748h-31.878v31.255c0,32.379,26.257,58.637,58.636,58.637h328.627
						c32.392,0,58.648-26.258,58.648-58.637v-31.255h-31.89V597.36c0-28.555-7.625-56.596-22.092-81.216l-59.919-102.037
						c-6.622-11.265-6.806-25.182-0.513-36.606l62.607-113.668c13.062-23.704,19.903-50.315,19.903-77.379V89.891H587.066z
						 M536.213,178.34c0,23.802-6.023,47.212-17.509,68.057l-65.992,119.814c-10.422,18.938-10.117,41.946,0.831,60.591
						l63.242,107.706c12.707,21.65,19.415,46.319,19.415,71.429v96.184h-35.567c-16.189-22.408-56.791-38.391-104.626-38.391
						c-47.848,0-88.45,15.982-104.639,38.391h-35.58v-96.184c0-25.109,6.708-49.778,19.415-71.429l63.243-107.706
						c10.948-18.633,11.266-41.653,0.831-60.591l-65.992-119.814c-11.485-20.845-17.509-44.255-17.509-68.057V89.879h280.414v88.461
						H536.213z"/>
				</g>
			</g>
		</g>
		<g>
			<g>
				<g>
					<path d="M473.178,255.561H318.822l58.539,106.496c3.739,6.806,10.887,11.033,18.645,11.033c7.759,0,14.907-4.24,18.646-11.033
						L473.178,255.561z"/>
				</g>
			</g>
		</g>
	</g>
</g>
<g>
</g>
<g>
</g>
<g>
</g>
<g>
</g>
<g>
</g>
<g>
</g>
<g>
</g>
<g>
</g>
<g>
</g>
<g>
</g>
<g>
</g>
<g>
</g>
<g>
</g>
<g>
</g>
<g>
</g>
</svg>
